<?xml version="1.0" encoding="utf-8"?>
<!-- Generator: Adobe Illustrator 15.0.0, SVG Export Plug-In . SVG Version: 6.00 Build 0)  -->
<!DOCTYPE svg PUBLIC "-//W3C//DTD SVG 1.1//EN" "http://www.w3.org/Graphics/SVG/1.1/DTD/svg11.dtd">
<svg version="1.1" id="Layer_1" xmlns="http://www.w3.org/2000/svg" xmlns:xlink="http://www.w3.org/1999/xlink" x="0px" y="0px"
	 width="353px" height="223px" viewBox="0 0 353 223" enable-background="new 0 0 353 223" xml:space="preserve">
<polygon fill="#0175B2" points="65.281,163.545 55.899,163.545 55.899,140.318 43.026,140.318 43.026,132.776 78.155,132.776 
	78.155,140.318 65.281,140.318 "/>
<g>
	<defs>
		<rect id="SVGID_1_" x="-69" y="-127" width="500" height="500"/>
	</defs>
	<clipPath id="SVGID_2_">
		<use xlink:href="#SVGID_1_"  overflow="visible"/>
	</clipPath>
	<path clip-path="url(#SVGID_2_)" fill="#0175B2" d="M107.188,132.776c4.877,0,8.197,0.723,9.96,2.169
		c1.764,1.447,2.645,4.085,2.645,7.915c0,2.658-0.393,4.636-1.178,5.931c-0.785,1.295-2.101,2.163-3.946,2.604
		c1.625,0.386,2.844,1.068,3.657,2.046c0.813,0.979,1.219,2.245,1.219,3.802v6.303h-9.402v-4.69c0-1.213-0.286-2.046-0.857-2.501
		c-0.572-0.454-1.699-0.681-3.379-0.681h-14.01v7.872h-9.423v-30.769H107.188z M106.836,140.442h-14.94v7.521h14.94
		c1.253,0,2.131-0.291,2.635-0.878c0.502-0.585,0.754-1.643,0.754-3.172c0-1.212-0.269-2.094-0.806-2.646
		C108.882,140.718,108.021,140.442,106.836,140.442"/>
	<path clip-path="url(#SVGID_2_)" fill="#0175B2" d="M132.956,163.545h-10.249l16.8-30.769h11.985l16.49,30.769h-10.312
		l-2.975-5.125h-18.742L132.956,163.545z M139.507,151.022h11.82l-5.972-10.89L139.507,151.022z"/>
	<polygon clip-path="url(#SVGID_2_)" fill="#0175B2" points="212.761,163.545 198.998,163.545 180.545,141.166 180.545,163.545 
		171.164,163.545 171.164,132.776 185.071,132.776 203.399,155.341 203.399,132.776 212.761,132.776 	"/>
	<path clip-path="url(#SVGID_2_)" fill="#0175B2" d="M218.464,153.316l9.277-0.021v0.559c0,1.157,0.283,1.939,0.849,2.346
		c0.563,0.406,1.749,0.609,3.554,0.609h11.799c1.158,0,1.984-0.196,2.48-0.589s0.744-1.044,0.744-1.953
		c0-0.923-0.286-1.584-0.857-1.983c-0.573-0.399-1.802-0.668-3.69-0.806l-14.754-0.331c-3.691-0.11-6.188-0.813-7.489-2.107
		c-1.303-1.295-1.953-3.65-1.953-7.067c0-1.764,0.172-3.217,0.517-4.36c0.343-1.144,0.896-2.094,1.653-2.852
		c0.895-0.854,2.065-1.46,3.513-1.818c1.446-0.358,3.801-0.537,7.067-0.537h14.341c3.554,0,6.113,0.647,7.677,1.942
		s2.344,3.396,2.344,6.303c0,0.192-0.003,0.399-0.01,0.619c-0.006,0.221-0.031,0.579-0.072,1.075h-9.05v-0.124
		c0-1.02-0.259-1.784-0.775-2.294s-1.291-0.765-2.324-0.765h-10.828c-1.805,0-2.996,0.18-3.575,0.537
		c-0.579,0.358-0.869,0.985-0.869,1.881c0,0.882,0.263,1.519,0.786,1.911s1.488,0.645,2.894,0.754l15.457,0.248
		c3.525,0.097,6.01,0.889,7.448,2.377c1.44,1.487,2.159,4.029,2.159,7.625c0,2.136-0.265,3.788-0.795,4.959
		c-0.531,1.171-1.422,2.17-2.676,2.997c-0.826,0.523-1.949,0.898-3.368,1.126s-3.472,0.341-6.158,0.341h-12.522
		c-5.14,0-8.575-0.575-10.312-1.726c-1.735-1.15-2.604-3.296-2.604-6.437c0-0.18,0.011-0.479,0.03-0.899
		C218.392,154.436,218.423,153.923,218.464,153.316"/>
	<rect x="262.561" y="132.776" clip-path="url(#SVGID_2_)" fill="#0175B2" width="9.402" height="30.769"/>
	<polygon clip-path="url(#SVGID_2_)" fill="#0175B2" points="298.744,163.545 289.363,163.545 289.363,140.318 276.489,140.318 
		276.489,132.776 311.618,132.776 311.618,140.318 298.744,140.318 	"/>
	<polygon clip-path="url(#SVGID_2_)" fill="#C83233" points="88.548,111.205 203.404,35.702 187.847,20.144 232.69,34.787 	"/>
	<polygon clip-path="url(#SVGID_2_)" fill="#0175B2" points="85.803,118.984 240.47,38.447 268.841,48.057 	"/>
	<polygon clip-path="url(#SVGID_2_)" fill="#323230" points="86.718,125.391 268.841,54.005 240.012,109.374 239.555,80.088 	"/>
	<polygon clip-path="url(#SVGID_2_)" fill="#C83233" points="89.278,192.854 82.649,192.854 82.649,170.528 92.711,170.528 
		100.672,184.473 108.77,170.528 118.696,170.528 118.696,192.854 112.098,192.854 112.098,176.945 102.876,192.854 98.424,192.854 
		89.278,176.945 	"/>
	<polygon clip-path="url(#SVGID_2_)" fill="#C83233" points="158.703,175.971 141.115,175.971 141.115,179.345 157.682,179.345 
		157.682,184.038 141.115,184.038 141.115,187.457 158.973,187.457 158.973,192.854 134.308,192.854 134.308,170.528 
		158.703,170.528 	"/>
	<path clip-path="url(#SVGID_2_)" fill="#C83233" d="M193.568,170.528c3.408,0,5.887,0.598,7.438,1.792
		c1.549,1.194,2.323,3.096,2.323,5.705v7.677c0,2.479-0.619,4.291-1.859,5.436c-1.239,1.145-3.209,1.717-5.907,1.717h-21.576
		v-22.326H193.568z M191.484,176.031h-10.691v11.396h11.546c1.449,0,2.508-0.296,3.178-0.886c0.669-0.59,1.004-1.515,1.004-2.774
		v-3.928c0-1.31-0.407-2.271-1.222-2.887C194.485,176.339,193.214,176.031,191.484,176.031"/>
	<rect x="218.658" y="170.529" clip-path="url(#SVGID_2_)" fill="#C83233" width="6.822" height="22.326"/>
	<path clip-path="url(#SVGID_2_)" fill="#C83233" d="M246.579,192.854h-7.437l12.189-22.326h8.696l11.965,22.326h-7.481
		l-2.158-3.719h-13.601L246.579,192.854z M251.332,183.768h8.576l-4.333-7.901L251.332,183.768z"/>
</g>
</svg>
